<?xml version="1.0" encoding="utf-8"?>
<!-- Generator: Adobe Illustrator 21.0.0, SVG Export Plug-In . SVG Version: 6.00 Build 0)  -->
<svg version="1.0" id="Layer_1" xmlns="http://www.w3.org/2000/svg" xmlns:xlink="http://www.w3.org/1999/xlink" x="0px" y="0px"
	 viewBox="0 0 64 64" style="enable-background:new 0 0 64 64;" xml:space="preserve">
<style type="text/css">
	.st0{fill:none;}
	.st1{opacity:0.6;fill:#FFFFFF;enable-background:new    ;}
	.st2{fill:#FFFFFF;}
</style>
<g id="icon-m-aliendalvikcontrol_1_">
	<rect id="icon-m-aliendalvikcontrol" class="st0" width="64" height="64"/>
	<path id="_x3C_Compound_Path_x3E_" class="st1" d="M50.5,22.7c-1,0-1.9,0.3-2.6,0.8v-0.7H16v0.8c-0.7-0.5-1.6-0.8-2.5-0.8
		c-2.5,0-4.6,2-4.6,4.6v13.3c0,2.5,2,4.6,4.6,4.6c1.1,0,2.1-0.4,2.8-1c0.7,2.3,3,3.9,5.8,3.9h0.1v4.4c0,2.4,2,4.3,4.3,4.3
		c2.4,0,4.3-1.9,4.3-4.3v-4.4H33v4.4c0,2.4,2,4.3,4.3,4.3c2.4,0,4.3-1.9,4.3-4.3v-4.4H42c2.7,0,5-1.7,5.7-3.9
		c0.8,0.6,1.7,0.9,2.8,0.9c2.5,0,4.6-2,4.6-4.6V27.2C55.2,24.7,53,22.7,50.5,22.7z M16.2,27.2v13.4c0,1.4-1.2,2.6-2.6,2.6
		c-1.4,0-2.6-1.1-2.6-2.6V27.3c0-1.4,1.1-2.6,2.6-2.6c1.3,0,2.4,1,2.6,2.3C16.2,27.1,16.2,27.2,16.2,27.2z M46,42.6
		c0,1.9-1.8,3.5-4,3.5h-2.3v6.4c0,1.3-1,2.3-2.3,2.3c-1.3,0-2.3-1-2.3-2.3v-6.4h-6.2v6.4c0,1.3-1,2.3-2.3,2.3s-2.3-1-2.3-2.3v-6.4
		h-2.1c-2.2,0-4-1.6-4-3.5V24.8H46V42.6z M53.3,40.5L53.3,40.5c-0.1,1.4-1.3,2.6-2.7,2.6c-1.3,0-2.4-1-2.5-2.2V27.2
		c0-1.4,1.1-2.6,2.6-2.6c1.4,0,2.6,1.1,2.6,2.6V40.5z"/>
	<path class="st2" d="M46.7,16.5L46,14.8c-0.4-1-1.4-1.6-2.4-1.6c-0.3,0-0.7,0.1-1,0.2l-1,0.4c-0.5-0.7-1.1-1.3-1.8-1.8l0.4-1
		c0.3-0.6,0.3-1.3,0-2c-0.3-0.6-0.8-1.1-1.4-1.4l-1.7-0.7c-0.3-0.1-0.7-0.2-1-0.2c-1,0-2,0.6-2.4,1.6l-0.4,1c-0.4,0-0.8-0.1-1.3-0.1
		c-0.4,0-0.9,0-1.3,0.1l-0.4-1c-0.4-1-1.4-1.6-2.4-1.6c-0.3,0-0.7,0.1-1,0.2l-1.7,0.7c-1.3,0.6-2,2.1-1.4,3.4l0.4,1
		c-0.7,0.5-1.3,1.1-1.8,1.8l-1-0.4c-0.3-0.1-0.6-0.2-1-0.2c-1.1,0-2,0.6-2.4,1.6l-0.7,1.7c-0.3,0.6-0.3,1.3,0,2
		c0.3,0.6,0.8,1.1,1.4,1.4l1,0.4c-0.1,0.8-0.1,1.7,0,2.5h2c0,0,0-0.1,0-0.2c-0.1-0.7-0.1-1.4,0-2.1c0.1-0.9-0.4-1.7-1.2-2.1l-1-0.4
		c-0.1-0.1-0.3-0.2-0.3-0.3c-0.1-0.1-0.1-0.3,0-0.4l0.7-1.7c0.1-0.2,0.3-0.3,0.5-0.3c0.1,0,0.1,0,0.2,0l1,0.4
		c0.2,0.1,0.5,0.2,0.8,0.2c0.6,0,1.2-0.3,1.6-0.7c0.4-0.5,0.9-1,1.5-1.5c0.7-0.6,0.9-1.5,0.6-2.3l-0.4-1c-0.1-0.3,0-0.6,0.3-0.8
		l1.7-0.7c0,0,0.1,0,0.2,0c0.2,0,0.5,0.2,0.6,0.3l0.4,1c0.3,0.8,1,1.2,1.9,1.2c0.1,0,0.1,0,0.2,0c0.4,0,0.7-0.1,1.1-0.1
		s0.7,0,1.1,0.1c0.1,0,0.2,0,0.2,0c0.8,0,1.5-0.5,1.8-1.2l0.4-1c0.1-0.2,0.3-0.3,0.5-0.3c0.1,0,0.1,0,0.2,0L38,9.5
		c0.1,0.1,0.3,0.2,0.3,0.3c0.1,0.1,0.1,0.3,0,0.4l-0.4,1c-0.3,0.8-0.1,1.8,0.6,2.3c0.5,0.4,1.1,1,1.5,1.5c0.4,0.5,1,0.7,1.6,0.7
		c0.3,0,0.5-0.1,0.8-0.2l1-0.4c0.1,0,0.1,0,0.2,0c0.2,0,0.5,0.1,0.6,0.3l0.7,1.7c0.1,0.1,0.1,0.3,0,0.4c-0.1,0.1-0.2,0.3-0.3,0.3
		l-1,0.4c-0.8,0.3-1.3,1.2-1.2,2.1c0.1,0.7,0.1,1.4,0,2.1c0,0,0,0.1,0,0.1h2c0.1-0.8,0.1-1.7,0-2.5l1-0.4c0.6-0.3,1.1-0.8,1.4-1.4
		C47,17.9,47,17.2,46.7,16.5z"/>
	<path class="st1" d="M35,14.4c-1-0.4-2-0.6-3-0.6c-3.2,0-6,1.9-7.2,4.8c-0.6,1.4-0.7,2.8-0.5,4.2h2.1c-0.2-1.1-0.2-2.3,0.3-3.4
		c0.9-2.2,3-3.6,5.3-3.6c0.8,0,1.5,0.2,2.2,0.4c2.6,1.1,4,3.9,3.4,6.6h2C40.3,19.3,38.4,15.8,35,14.4z"/>
</g>
</svg>
