<?xml version="1.0" encoding="UTF-8" standalone="no"?>
<svg
   xmlns:dc="http://purl.org/dc/elements/1.1/"
   xmlns:cc="http://creativecommons.org/ns#"
   xmlns:rdf="http://www.w3.org/1999/02/22-rdf-syntax-ns#"
   xmlns:svg="http://www.w3.org/2000/svg"
   xmlns="http://www.w3.org/2000/svg"
   version="1.1"
   id="Capa_1"
   x="0px"
   y="0px"
   width="64"
   height="64"
   viewBox="0 0 64.000002 64.000002"
   xml:space="preserve"><metadata
   id="metadata41"><rdf:RDF><cc:Work
       rdf:about=""><dc:format>image/svg+xml</dc:format><dc:type
         rdf:resource="http://purl.org/dc/dcmitype/StillImage" /><dc:title></dc:title></cc:Work></rdf:RDF></metadata><defs
   id="defs39" />
<g
   id="g4"
   transform="matrix(0.07765254,-0.04483272,0.04483272,0.07765254,9.3484014,30.122517)">
	<path
   d="m 21.184,27.905 c 0.029,-0.006 0.077,0 0.118,0 h 415.61 c 7.565,0 14.563,4.037 18.347,10.592 3.784,6.555 3.783,14.629 0,21.184 L 247.454,419.602 c -3.783,6.556 -10.781,10.593 -18.348,10.593 -7.565,0 -14.561,-4.037 -18.344,-10.593 L 3.98,61.466 C 1.475,57.985 0,53.714 0,49.089 0,37.389 9.483,27.905 21.184,27.905 Z M 400.218,70.273 H 57.993 l 171.113,296.369 z"
   id="path2"
   style="fill:#ffffff" />
</g>
<g
   id="g6"
   transform="matrix(0.07765254,-0.04483272,0.04483272,0.07765254,9.3484014,30.122517)">
</g>
<g
   id="g8"
   transform="matrix(0.07765254,-0.04483272,0.04483272,0.07765254,9.3484014,30.122517)">
</g>
<g
   id="g10"
   transform="matrix(0.07765254,-0.04483272,0.04483272,0.07765254,9.3484014,30.122517)">
</g>
<g
   id="g12"
   transform="matrix(0.07765254,-0.04483272,0.04483272,0.07765254,9.3484014,30.122517)">
</g>
<g
   id="g14"
   transform="matrix(0.07765254,-0.04483272,0.04483272,0.07765254,9.3484014,30.122517)">
</g>
<g
   id="g16"
   transform="matrix(0.07765254,-0.04483272,0.04483272,0.07765254,9.3484014,30.122517)">
</g>
<g
   id="g18"
   transform="matrix(0.07765254,-0.04483272,0.04483272,0.07765254,9.3484014,30.122517)">
</g>
<g
   id="g20"
   transform="matrix(0.07765254,-0.04483272,0.04483272,0.07765254,9.3484014,30.122517)">
</g>
<g
   id="g22"
   transform="matrix(0.07765254,-0.04483272,0.04483272,0.07765254,9.3484014,30.122517)">
</g>
<g
   id="g24"
   transform="matrix(0.07765254,-0.04483272,0.04483272,0.07765254,9.3484014,30.122517)">
</g>
<g
   id="g26"
   transform="matrix(0.07765254,-0.04483272,0.04483272,0.07765254,9.3484014,30.122517)">
</g>
<g
   id="g28"
   transform="matrix(0.07765254,-0.04483272,0.04483272,0.07765254,9.3484014,30.122517)">
</g>
<g
   id="g30"
   transform="matrix(0.07765254,-0.04483272,0.04483272,0.07765254,9.3484014,30.122517)">
</g>
<g
   id="g32"
   transform="matrix(0.07765254,-0.04483272,0.04483272,0.07765254,9.3484014,30.122517)">
</g>
<g
   id="g34"
   transform="matrix(0.07765254,-0.04483272,0.04483272,0.07765254,9.3484014,30.122517)">
</g>
</svg>