<?xml version="1.0" encoding="UTF-8" standalone="no"?>
<svg
   xmlns:dc="http://purl.org/dc/elements/1.1/"
   xmlns:cc="http://creativecommons.org/ns#"
   xmlns:rdf="http://www.w3.org/1999/02/22-rdf-syntax-ns#"
   xmlns:svg="http://www.w3.org/2000/svg"
   xmlns="http://www.w3.org/2000/svg"
   xmlns:sodipodi="http://sodipodi.sourceforge.net/DTD/sodipodi-0.dtd"
   xmlns:inkscape="http://www.inkscape.org/namespaces/inkscape"
   height="64"
   width="64"
   xml:space="preserve"
   viewBox="0 0 64.000003 64.000003"
   y="0px"
   x="0px"
   id="Layer_1"
   version="1.1"
   sodipodi:docname="icon-m-aliendalvik-back4.svg"
   inkscape:version="0.92.3 (2405546, 2018-03-11)"><sodipodi:namedview
   pagecolor="#ffffff"
   bordercolor="#666666"
   borderopacity="1"
   objecttolerance="10"
   gridtolerance="10"
   guidetolerance="10"
   inkscape:pageopacity="0"
   inkscape:pageshadow="2"
   inkscape:window-width="3840"
   inkscape:window-height="2089"
   id="namedview23"
   showgrid="false"
   inkscape:zoom="7.375"
   inkscape:cx="70.367285"
   inkscape:cy="29.254834"
   inkscape:window-x="0"
   inkscape:window-y="30"
   inkscape:window-maximized="1"
   inkscape:current-layer="Layer_1" /><metadata
   id="metadata43"><rdf:RDF><cc:Work
       rdf:about=""><dc:format>image/svg+xml</dc:format><dc:type
         rdf:resource="http://purl.org/dc/dcmitype/StillImage" /><dc:title /></cc:Work></rdf:RDF></metadata><defs
   id="defs41" />
<g
   transform="matrix(0.90605809,0,0,0.90605809,2.8474811,-402.41958)"
   id="g6">
	<g
   id="g4">
		<path
   style="fill:#ffffff;stroke-width:0.12496373"
   id="path2"
   d="m 48.090512,470.74671 c -0.08722,0 -43.5789775,0 -43.5789775,0 l 9.1630905,-10.2704 c 0.594203,-0.66605 0.53597,-1.68763 -0.130087,-2.28183 -0.665807,-0.59408 -1.687636,-0.5361 -2.281838,0.13009 L 0.94294514,469.89121 c -1.25701018,1.40934 -1.25688522,3.53423 1.2496e-4,4.94319 l 10.3197549,11.56676 c 0.319407,0.35803 0.761904,0.54023 1.2064,0.54023 0.382889,0 0.767152,-0.13535 1.075438,-0.41014 0.666057,-0.59419 0.724165,-1.61578 0.130087,-2.28183 L 4.5116594,473.9789 c 0,0 43.4916266,0 43.5789776,0 6.980224,0 12.658826,5.67885 12.658826,12.65882 0,6.97997 -5.678727,12.65883 -12.658826,12.65883 H 40.39537 c -0.892616,0 -1.616156,0.72366 -1.616156,1.61616 0,0.89249 0.72354,1.61615 1.616156,1.61615 h 7.695267 c 8.762457,0 15.891137,-7.12868 15.891137,-15.89114 -1.24e-4,-8.76233 -7.128805,-15.89101 -15.891262,-15.89101 z"
   inkscape:connector-curvature="0" />
	</g>
</g>
<g
   transform="matrix(0.90605809,0,0,0.90605809,2.8474811,-402.41958)"
   id="g8">
</g>
<g
   transform="matrix(0.90605809,0,0,0.90605809,2.8474811,-402.41958)"
   id="g10">
</g>
<g
   transform="matrix(0.90605809,0,0,0.90605809,2.8474811,-402.41958)"
   id="g12">
</g>
<g
   transform="matrix(0.90605809,0,0,0.90605809,2.8474811,-402.41958)"
   id="g14">
</g>
<g
   transform="matrix(0.90605809,0,0,0.90605809,2.8474811,-402.41958)"
   id="g16">
</g>
<g
   transform="matrix(0.90605809,0,0,0.90605809,2.8474811,-402.41958)"
   id="g18">
</g>
<g
   transform="matrix(0.90605809,0,0,0.90605809,2.8474811,-402.41958)"
   id="g20">
</g>
<g
   transform="matrix(0.90605809,0,0,0.90605809,2.8474811,-402.41958)"
   id="g22">
</g>
<g
   transform="matrix(0.90605809,0,0,0.90605809,2.8474811,-402.41958)"
   id="g24">
</g>
<g
   transform="matrix(0.90605809,0,0,0.90605809,2.8474811,-402.41958)"
   id="g26">
</g>
<g
   transform="matrix(0.90605809,0,0,0.90605809,2.8474811,-402.41958)"
   id="g28">
</g>
<g
   transform="matrix(0.90605809,0,0,0.90605809,2.8474811,-402.41958)"
   id="g30">
</g>
<g
   transform="matrix(0.90605809,0,0,0.90605809,2.8474811,-402.41958)"
   id="g32">
</g>
<g
   transform="matrix(0.90605809,0,0,0.90605809,2.8474811,-402.41958)"
   id="g34">
</g>
<g
   transform="matrix(0.90605809,0,0,0.90605809,2.8474811,-402.41958)"
   id="g36">
</g>
</svg>